HIERARCHY
ROOT SimulationBone
{
	OFFSET 0.000000 0.000000 0.000000
	CHANNELS 6 Xposition Yposition Zposition Zrotation Yrotation Xrotation 
	JOINT Hips
	{
		OFFSET 0.000000 0.000000 0.000000
		CHANNELS 6 Xposition Yposition Zposition Zrotation Yrotation Xrotation 
		JOINT RightUpLeg
		{
			OFFSET 0.103458 1.857835 10.548497
			CHANNELS 3 Zrotation Yrotation Xrotation
			JOINT RightLeg
			{
				OFFSET 43.500000 -0.000034 -0.000013
				CHANNELS 3 Zrotation Yrotation Xrotation
				JOINT RightFoot
				{
					OFFSET 42.372192 0.000011 0.000010
					CHANNELS 3 Zrotation Yrotation Xrotation
					JOINT RightToe
					{
						OFFSET 17.299994 -0.000002 -0.000009
						CHANNELS 3 Zrotation Yrotation Xrotation
						End Site
						{
							OFFSET 0.000000 0.000000 0.000000
						}
					}
				}
			}
		}
		JOINT LeftUpLeg
		{
			OFFSET 0.103456 1.857832 -10.548508
			CHANNELS 3 Zrotation Yrotation Xrotation
			JOINT LeftLeg
			{
				OFFSET 43.500038 -0.000027 0.000004
				CHANNELS 3 Zrotation Yrotation Xrotation
				JOINT LeftFoot
				{
					OFFSET 42.372261 -0.000011 0.000014
					CHANNELS 3 Zrotation Yrotation Xrotation
					JOINT LeftToe
					{
						OFFSET 17.299995 -0.000004 0.000011
						CHANNELS 3 Zrotation Yrotation Xrotation
						End Site
						{
							OFFSET 0.000000 0.000000 0.000000
						}
					}
				}
			}
		}
		JOINT Spine
		{
			OFFSET 6.901970 -2.603727 -0.000002
			CHANNELS 3 Zrotation Yrotation Xrotation
			JOINT Spine1
			{
				OFFSET 12.588097 -0.000001 0.000008
				CHANNELS 3 Zrotation Yrotation Xrotation
				JOINT Spine2
				{
					OFFSET 12.343203 0.000000 -0.000005
					CHANNELS 3 Zrotation Yrotation Xrotation
					JOINT Neck
					{
						OFFSET 25.832903 -0.000002 -0.000005
						CHANNELS 3 Zrotation Yrotation Xrotation
						JOINT Head
						{
							OFFSET 11.766603 0.000011 -0.000000
							CHANNELS 3 Zrotation Yrotation Xrotation
							End Site
							{
								OFFSET 0.000000 0.000000 0.000000
							}
						}
					}
					JOINT RightShoulder
					{
						OFFSET 19.745899 -1.480377 6.000100
						CHANNELS 3 Zrotation Yrotation Xrotation
						JOINT RightArm
						{
							OFFSET 11.284134 -0.000021 -0.000017
							CHANNELS 3 Zrotation Yrotation Xrotation
							JOINT RightForeArm
							{
								OFFSET 33.000053 0.000002 0.000032
								CHANNELS 3 Zrotation Yrotation Xrotation
								JOINT RightHand
								{
									OFFSET 25.200005 0.000020 0.000008
									CHANNELS 3 Zrotation Yrotation Xrotation
									End Site
									{
										OFFSET 0.000000 0.000000 0.000000
									}
								}
							}
						}
					}
					JOINT LeftShoulder
					{
						OFFSET 19.746092 -1.480377 -6.000073
						CHANNELS 3 Zrotation Yrotation Xrotation
						JOINT LeftArm
						{
							OFFSET 11.284133 -0.000016 -0.000019
							CHANNELS 3 Zrotation Yrotation Xrotation
							JOINT LeftForeArm
							{
								OFFSET 33.000092 0.000022 0.000006
								CHANNELS 3 Zrotation Yrotation Xrotation
								JOINT LeftHand
								{
									OFFSET 25.199783 0.000138 0.000434
									CHANNELS 3 Zrotation Yrotation Xrotation
									End Site
									{
										OFFSET 0.000000 0.000000 0.000000
									}
								}
							}
						}
					}
				}
			}
		}
	}
}
MOTION
Frames: 6
Frame Time: 0.033333
172.248074 0.000000 -422.587456 180.000000 13.476973 180.000000 -23.968923 69.236794 11.783598 57.443281 13.944302 -162.676398 129.921905 -28.401708 -166.448677 -64.626615 3.949726 6.231454 113.950976 -2.872282 -31.393991 21.454558 0.003107 0.000017 118.222802 26.744798 168.500835 -109.923705 -1.824324 -4.266747 99.189257 3.738663 8.892706 21.454539 -0.003091 0.000000 16.967076 -0.468535 -1.420610 23.929803 -0.633376 -2.907274 23.612126 -0.651047 -2.903419 -23.501300 -11.328470 4.813910 -48.738116 15.099202 -11.129670 111.529811 -74.054222 68.215346 -28.062640 -1.748006 26.297193 -18.997155 -17.227419 1.226795 9.854070 -7.045047 5.405498 -161.605677 79.405430 20.226818 13.697358 -49.722524 -41.178063 -47.646986 18.433969 -1.903902 -12.386491 14.306050 -5.359138 
168.022191 0.000000 -428.509357 180.000000 11.248960 180.000000 -23.519109 69.233292 7.910040 59.139808 13.218691 -167.359479 141.265469 -33.816700 -169.405384 -57.092414 3.885078 4.654211 111.176499 -2.523709 -33.679465 21.454558 0.003109 0.000017 109.720548 27.608904 163.821527 -100.908504 -1.127316 -2.129222 99.292338 2.375165 9.474797 21.454550 -0.003091 -0.000002 17.017205 0.098664 -1.384727 24.015988 0.482322 -2.718786 23.698274 0.465768 -2.721661 -21.395781 -5.512159 6.097647 -48.514776 11.634709 -4.621096 121.178402 -76.697724 58.275686 -21.104557 8.260117 28.017112 -23.557696 -16.512544 1.241534 8.469802 -1.368290 7.026610 -154.874457 81.141664 27.032345 21.946714 -46.772985 -44.458272 -52.253662 17.222161 -1.973125 -11.702568 12.168174 -3.704447 
163.078927 0.000000 -434.044028 180.000000 9.165357 180.000000 -22.166842 69.595299 4.988789 60.561919 12.425509 -173.411741 156.491682 -38.743613 -175.827729 -47.461800 2.917627 2.134036 102.930001 -3.254203 -33.998052 21.454558 0.003110 0.000017 105.578947 27.048294 163.911071 -86.241903 0.183287 0.392510 98.032756 1.071199 12.944781 21.454550 -0.003093 0.000000 16.981708 0.411457 -1.172592 23.941152 1.056397 -2.234785 23.623273 1.042752 -2.241136 -19.168921 -1.565731 7.025697 -47.848112 8.990046 0.027318 136.470786 -77.360539 42.786351 -13.922400 19.278593 36.469314 -23.949567 -16.946698 1.274879 7.921282 -3.055109 9.359277 -157.446966 82.200411 24.405188 18.792415 -42.830935 -42.858331 -54.592732 17.611020 -2.079828 -10.522040 12.133252 -3.964608 
157.450201 0.000000 -439.191042 180.000000 7.231935 180.000000 -19.906172 69.496681 3.021617 60.866557 11.246710 -178.866624 170.709664 -39.865294 177.367869 -39.367612 3.189374 -1.217722 88.148987 -4.959873 -31.702801 21.454555 0.003107 0.000018 104.310191 27.669909 167.584360 -70.944929 1.584413 -0.201719 94.823755 2.398663 18.082782 21.454555 -0.003092 0.000000 16.493040 0.874182 -0.949784 22.962027 1.919315 -1.707445 22.643892 1.908837 -1.719020 -17.076513 -0.547735 7.793779 -47.040476 5.460544 3.909767 146.362717 -75.638956 32.880377 -5.567113 32.215219 42.075133 -22.535258 -15.558778 1.166450 8.213600 -5.286335 9.099241 -165.856131 83.186520 15.887575 9.568823 -39.302678 -36.820607 -54.459991 17.979950 -2.100103 -9.335762 13.507170 -1.343144 
151.167934 0.000000 -443.949975 180.000000 5.451726 180.000000 -17.436281 68.814377 1.731917 62.450071 8.946434 177.936901 178.031544 -36.517002 175.105532 -42.903348 5.396872 -4.350594 73.351027 -6.587116 -30.280814 21.454565 0.003105 0.000018 107.162369 29.682698 171.213172 -59.348354 2.592892 -4.762088 90.980066 7.578206 26.776163 21.454553 -0.003092 0.000000 16.129751 1.483167 -0.870528 22.235160 3.105819 -1.440241 21.916670 3.096932 -1.459002 -15.161732 -1.343410 7.823417 -45.845162 1.263890 6.763892 151.893203 -73.131901 27.405717 3.357624 44.204356 50.300942 -22.513837 -14.302791 1.086471 7.801432 -3.232387 8.881518 -173.159065 82.429072 8.499507 -3.663374 -33.486273 -28.803632 -52.582720 18.903539 -2.097405 -7.637005 15.187644 1.487996 
144.264045 0.000000 -448.320400 180.000000 3.825411 180.000000 -16.329215 67.628647 0.467886 66.238468 7.087967 175.928015 176.833748 -33.485002 176.945517 -65.187544 4.753087 3.992529 76.879667 -8.695478 -20.064109 21.454560 0.003109 0.000017 115.942147 30.052699 173.007462 -51.731822 2.667562 -4.371532 87.869960 8.277707 27.861870 21.454553 -0.003094 -0.000001 16.329995 2.172665 -0.459407 22.654436 4.393043 -0.484716 22.335340 4.389898 -0.511306 -11.753109 -1.144701 6.415250 -46.213036 -3.644633 8.904003 153.564700 -72.031516 25.762691 15.415291 54.836925 63.271225 -25.933754 -14.425320 1.146091 4.859182 -4.713514 6.967685 -175.193683 79.162582 6.405500 -16.862038 -22.593424 -22.610173 -50.341742 19.912440 -2.089767 -7.633155 16.150237 2.721811 
